<svg class="icon" viewBox="0 0 1024 1024" xmlns="http://www.w3.org/2000/svg" width="200" height="200"><defs><style/></defs><path d="M512 958.709c-246.32 0-446.709-200.39-446.709-446.709S265.68 65.29 512 65.29 958.709 265.68 958.709 512 758.319 958.709 512 958.709zm0-861.51C283.27 97.199 97.199 283.279 97.199 512S283.269 926.801 512 926.801 926.801 740.721 926.801 512 740.73 97.199 512 97.199zM655.583 384.37a23.386 46.772 0 110 1.024zm23.933 63.814c-23.105 0-39.884-26.837-39.884-63.816s16.779-63.815 39.884-63.815 39.885 26.836 39.885 63.815-16.78 63.816-39.885 63.816zm0-94.79c-3.1 3.647-7.976 14.428-7.976 30.974s4.877 27.328 7.976 30.974c3.1-3.646 7.977-14.427 7.977-30.974s-4.877-27.327-7.977-30.973zM320.551 384.37a23.386 46.772 0 110 1.024zm23.933 63.814c-23.105 0-39.885-26.837-39.885-63.816s16.78-63.815 39.885-63.815 39.884 26.836 39.884 63.815-16.779 63.816-39.884 63.816zm0-94.79c-3.1 3.647-7.977 14.428-7.977 30.974s4.876 27.328 7.977 30.974c3.1-3.646 7.976-14.427 7.976-30.974s-4.876-27.327-7.976-30.973zm438.73 214.447c0 127.76-121.428 231.331-271.216 231.331s-271.216-103.57-271.216-231.331M512 815.124c-158.34 0-287.17-110.93-287.17-247.286 0-8.81 7.135-15.955 15.954-15.955s15.954 7.144 15.954 15.955c0 118.759 114.513 215.377 255.263 215.377s255.263-96.62 255.263-215.377c0-8.81 7.135-15.955 15.954-15.955s15.954 7.144 15.954 15.955C799.17 704.194 670.34 815.124 512 815.124zm-271.217-263.24h542.433v31.908H240.783v-31.908z" data-spm-anchor-id="a313x.7781069.0.i3" fill="#999"/></svg>